<svg xmlns="http://www.w3.org/2000/svg" viewBox="0 0 70.34 67.83"><defs><style>.cls-1,.cls-2,.cls-4{fill:#fff;}.cls-1,.cls-4{stroke:#fff;stroke-miterlimit:10;}.cls-1{stroke-width:2px;}.cls-3{fill:#595757;}.cls-4{stroke-width:3px;}</style></defs><g id="圖層_2" data-name="圖層 2"><g id="圖層_1-2" data-name="圖層 1"><path class="cls-1" d="M34.57,58A24.12,24.12,0,1,1,58.69,33.91,24.15,24.15,0,0,1,34.57,58Zm0-46.27A22.16,22.16,0,1,0,56.72,33.91,22.18,22.18,0,0,0,34.57,11.76Z"/><path class="cls-2" d="M17.57,33.91s16.5-14.84,35.06,0C52.63,33.91,34.44,52.47,17.57,33.91Z"/><path class="cls-2" d="M34.16,42.6a19.71,19.71,0,0,1-4.06-.43c-4.59-1-8.89-3.65-12.79-7.94a.5.5,0,0,1-.12-.34.46.46,0,0,1,.15-.32,29.33,29.33,0,0,1,10.71-5.65c5.95-1.71,15.09-2.13,24.8,5.63a.5.5,0,0,1,.16.34.45.45,0,0,1-.13.35,32.75,32.75,0,0,1-11.34,7A22.42,22.42,0,0,1,34.16,42.6ZM18.16,34c6.81,7.28,14.59,9.47,23.14,6.5A32.44,32.44,0,0,0,52,34c-9.31-7.23-18-6.82-23.75-5.19A29.68,29.68,0,0,0,18.16,34Z"/><ellipse class="cls-3" cx="34.84" cy="34.74" rx="2.87" ry="3.14"/><path class="cls-3" d="M34.84,38.31a3.59,3.59,0,1,1,3.27-3.57A3.44,3.44,0,0,1,34.84,38.31Zm0-6.27a2.71,2.71,0,1,0,2.47,2.7A2.6,2.6,0,0,0,34.84,32Z"/><path class="cls-4" d="M12.21,35.22H3A1.32,1.32,0,1,1,3,32.6h9.23a1.32,1.32,0,1,1,0,2.62Z"/><path class="cls-4" d="M67.21,35.22H57a1.49,1.49,0,0,1-1.63-1.31A1.5,1.5,0,0,1,57,32.6H67.21a1.5,1.5,0,0,1,1.63,1.31A1.49,1.49,0,0,1,67.21,35.22Z"/><path class="cls-4" d="M34.68,14.38a1.51,1.51,0,0,1-1.31-1.65V3.14A1.5,1.5,0,0,1,34.68,1.5,1.51,1.51,0,0,1,36,3.14v9.59A1.51,1.51,0,0,1,34.68,14.38Z"/><path class="cls-4" d="M34.68,66.33a1.44,1.44,0,0,1-1.31-1.55V55.72a1.33,1.33,0,1,1,2.62,0v9.06A1.45,1.45,0,0,1,34.68,66.33Z"/></g></g></svg>